<svg height="512pt" viewBox="0 -20 512.00044 512" width="512pt" xmlns="http://www.w3.org/2000/svg"><path d="m510.0625 175.582031-77.171875-105.109375c-15.390625-20.957031-40.101563-33.472656-66.105469-33.472656h-40.785156v-27c0-5.523438-4.476562-10-10-10h-120c-5.523438 0-10 4.476562-10 10v27h-40.789062c-26 0-50.714844 12.515625-66.101563 33.472656l-77.167969 105.109375c-2.925781 3.980469-2.503906 9.5.988282 12.988281l80.078124 80.078126c2.109376 2.113281 5.058594 3.167968 8.023438 2.886718 2.96875-.285156 5.65625-1.882812 7.328125-4.351562l3.765625-5.566406v200.382812c0 5.523438 4.480469 10 10 10h287.746094c5.523437 0 10-4.476562 10-10v-80c0-5.523438-4.476563-10-10-10-5.519532 0-10 4.476562-10 10v70h-267.746094v-223.003906c0-4.394532-2.867188-8.273438-7.066406-9.5625-4.199219-1.285156-8.75.316406-11.214844 3.957031l-15.257812 22.550781-65.445313-65.441406 72.089844-98.191406c11.636719-15.847656 30.320312-25.308594 49.980469-25.308594h50.789062c5.523438 0 10-4.476562 10-10v-27h100v27c0 5.523438 4.476562 10 10 10h50.785156c19.664063 0 38.347656 9.460938 49.984375 25.308594l72.089844 98.191406-65.445313 65.441406-15.257812-22.550781c-2.464844-3.636719-7.011719-5.242187-11.214844-3.957031-4.199218 1.289062-7.070312 5.167968-7.070312 9.5625v73.003906c0 5.523438 4.480468 10 10 10 5.523437 0 10-4.476562 10-10v-40.382812l3.769531 5.566406c1.671875 2.46875 4.359375 4.066406 7.328125 4.351562 2.972656.285156 5.914062-.773437 8.023438-2.886718l80.078124-80.078126c3.492188-3.488281 3.914063-9.007812.992188-12.988281zm0 0"/><path d="m449.445312 187.496094c2.050782 0 4.125-.628906 5.90625-1.9375 4.453126-3.265625 5.414063-9.523438 2.144532-13.976563l-2.066406-2.824219c-3.273438-4.453124-9.53125-5.414062-13.980469-2.144531-4.453125 3.265625-5.414063 9.523438-2.144531 13.976563l2.066406 2.824218c1.960937 2.667969 4.996094 4.082032 8.074218 4.082032zm0 0"/><path d="m426.589844 129.484375c-3.265625-4.453125-9.527344-5.410156-13.976563-2.144531-4.453125 3.269531-5.410156 9.527344-2.144531 13.980468l4.121094 5.609376c1.957031 2.667968 4.992187 4.082031 8.066406 4.082031 2.054688 0 4.128906-.628907 5.910156-1.9375 4.453125-3.269531 5.410156-9.527344 2.144532-13.980469zm0 0"/><path d="m290.355469 89.929688c2.484375 1.488281 5.117187 2.765624 7.820312 3.796874 1.175781.449219 2.378907.660157 3.5625.660157 4.027344 0 7.824219-2.449219 9.347657-6.4375 1.96875-5.160157-.617188-10.9375-5.777344-12.90625-1.617188-.617188-3.195313-1.382813-4.683594-2.277344-4.742188-2.835937-10.878906-1.289063-13.71875 3.449219-2.835938 4.738281-1.292969 10.878906 3.449219 13.714844zm0 0"/><path d="m350.144531 97c5.519531 0 10-4.476562 10-10s-4.480469-10-10-10h-6.960937c-5.523438 0-10 4.476562-10 10s4.476562 10 10 10zm0 0"/><path d="m384.523438 105.984375 1.230468 1.675781c1.960938 2.667969 4.992188 4.082032 8.070313 4.082032 2.054687 0 4.125-.632813 5.910156-1.941407 4.449219-3.265625 5.410156-9.527343 2.140625-13.976562l-1.226562-1.675781c-1.261719-1.71875-2.667969-3.351563-4.179688-4.859376-3.910156-3.902343-10.242188-3.894531-14.144531.015626-3.898438 3.910156-3.890625 10.242187.019531 14.144531.789062.785156 1.523438 1.640625 2.179688 2.535156zm0 0"/><path d="m276.113281 56.5c5.519531 0 10-4.476562 10-10v-3.5c0-5.523438-4.480469-10-10-10-5.523437 0-10 4.476562-10 10v3.5c0 5.523438 4.476563 10 10 10zm0 0"/><path d="m369.871094 384.324219v-3.5c0-5.523438-4.476563-10-10-10-5.519532 0-10 4.476562-10 10v3.5c0 5.523437 4.480468 10 10 10 5.523437 0 10-4.476563 10-10zm0 0"/><path d="m369.871094 231.855469c0-5.523438-4.476563-10-10-10-5.519532 0-10 4.476562-10 10v7.09375c0 5.523437 4.480468 10 10 10 5.523437 0 10-4.476563 10-10zm0 0"/><path d="m378.011719 205.503906c1.875 0 3.769531-.527344 5.457031-1.628906 1.480469-.964844 3.058594-1.808594 4.6875-2.496094 5.082031-2.15625 7.460938-8.023437 5.304688-13.109375-2.152344-5.085937-8.019532-7.460937-13.109376-5.304687-2.714843 1.148437-5.347656 2.550781-7.816406 4.164062-4.625 3.019532-5.925781 9.214844-2.90625 13.839844 1.917969 2.9375 5.117188 4.535156 8.382813 4.535156zm0 0"/><path d="m369.871094 331.167969c0-5.523438-4.476563-10-10-10-5.519532 0-10 4.476562-10 10v7.09375c0 5.523437 4.480468 10 10 10 5.523437 0 10-4.476563 10-10zm0 0"/><path d="m369.871094 281.511719c0-5.523438-4.476563-10-10-10-5.519532 0-10 4.476562-10 10v7.09375c0 5.523437 4.480468 10 10 10 5.523437 0 10-4.476563 10-10zm0 0"/><path d="m416.632812 191.324219c-3.398437 4.351562-2.628906 10.636719 1.722657 14.039062.6875.535157 1.355469 1.109375 1.988281 1.699219 1.929688 1.800781 4.382812 2.695312 6.828125 2.695312 2.671875 0 5.335937-1.066406 7.308594-3.171874 3.769531-4.035157 3.558593-10.359376-.476563-14.132813-1.0625-.992187-2.183594-1.949219-3.332031-2.847656-4.351563-3.402344-10.636719-2.632813-14.039063 1.71875zm0 0"/><path d="m82.25 189.601562c-1.136719.890626-2.253906 1.84375-3.324219 2.84375-4.035156 3.765626-4.257812 10.09375-.488281 14.132813 1.96875 2.109375 4.636719 3.179687 7.3125 3.179687 2.441406 0 4.890625-.890624 6.820312-2.6875.644532-.605468 1.316407-1.179687 1.996094-1.710937 4.351563-3.398437 5.121094-9.683594 1.722656-14.035156-3.402343-4.351563-9.6875-5.121094-14.039062-1.722657zm0 0"/><path d="m163.050781 281.496094c0-5.523438-4.480469-10-10-10-5.523437 0-10 4.476562-10 10v7.09375c0 5.523437 4.476563 10 10 10 5.519531 0 10-4.476563 10-10zm0 0"/><path d="m163.050781 331.152344c0-5.523438-4.480469-10-10-10-5.523437 0-10 4.476562-10 10v7.09375c0 5.523437 4.476563 10 10 10 5.519531 0 10-4.476563 10-10zm0 0"/><path d="m124.753906 201.371094c1.632813.691406 3.207032 1.527344 4.683594 2.492187 1.6875 1.101563 3.582031 1.625 5.457031 1.625 3.265625 0 6.464844-1.59375 8.382813-4.53125 3.019531-4.625 1.71875-10.824219-2.90625-13.84375-2.46875-1.609375-5.101563-3.011719-7.824219-4.164062-5.089844-2.152344-10.953125.230469-13.105469 5.316406s.226563 10.953125 5.3125 13.105469zm0 0"/><path d="m163.050781 231.839844c0-5.523438-4.480469-10-10-10-5.523437 0-10 4.476562-10 10v7.09375c0 5.523437 4.476563 10 10 10 5.519531 0 10-4.476563 10-10zm0 0"/><path d="m153.050781 370.824219c-5.523437 0-10 4.476562-10 10v3.5c0 5.523437 4.476563 10 10 10 5.519531 0 10-4.476563 10-10v-3.5c0-5.523438-4.480469-10-10-10zm0 0"/><path d="m236.8125 56.5c5.523438 0 10-4.476562 10-10v-3.5c0-5.523438-4.476562-10-10-10s-10 4.476562-10 10v3.5c0 5.523438 4.476562 10 10 10zm0 0"/><path d="m100.324219 127.320312c-4.453125-3.269531-10.710938-2.308593-13.976563 2.144532l-4.121094 5.609375c-3.269531 4.453125-2.308593 10.710937 2.144532 13.980469 1.78125 1.308593 3.855468 1.9375 5.910156 1.9375 3.074219 0 6.109375-1.414063 8.066406-4.082032l4.117188-5.609375c3.273437-4.453125 2.3125-10.710937-2.140625-13.980469zm0 0"/><path d="m179.765625 87c0-5.523438-4.480469-10-10-10h-6.960937c-5.523438 0-10 4.476562-10 10s4.476562 10 10 10h6.960937c5.519531 0 10-4.476562 10-10zm0 0"/><path d="m127.183594 107.636719 1.214844-1.65625c.660156-.898438 1.394531-1.753907 2.1875-2.542969 3.914062-3.894531 3.933593-10.226562.035156-14.140625-3.894532-3.917969-10.226563-3.933594-14.140625-.039063-1.523438 1.515626-2.9375 3.160157-4.207031 4.890626l-1.210938 1.652343c-3.269531 4.453125-2.3125 10.710938 2.140625 13.976563 1.785156 1.3125 3.855469 1.941406 5.910156 1.941406 3.078125 0 6.109375-1.414062 8.070313-4.082031zm0 0"/><path d="m226.03125 76.195312c-2.835938-4.734374-8.976562-6.273437-13.71875-3.4375-1.488281.894532-3.0625 1.660157-4.679688 2.277344-5.160156 1.972656-7.742187 7.753906-5.773437 12.914063 1.523437 3.984375 5.320313 6.429687 9.34375 6.429687 1.1875 0 2.394531-.210937 3.570313-.660156 2.699218-1.035156 5.332031-2.3125 7.816406-3.800781 4.742187-2.839844 6.28125-8.984375 3.441406-13.722657zm0 0"/><path d="m57.5 168.753906-2.074219 2.820313c-3.269531 4.453125-2.3125 10.710937 2.140625 13.980469 1.785156 1.308593 3.855469 1.941406 5.914063 1.941406 3.074219 0 6.105469-1.414063 8.066406-4.082032l2.070313-2.820312c3.269531-4.453125 2.3125-10.710938-2.140626-13.980469-4.445312-3.265625-10.707031-2.3125-13.976562 2.140625zm0 0"/><path d="m399.859375 332c-2.640625 0-5.210937 1.070312-7.078125 2.929688-1.859375 1.859374-2.921875 4.441406-2.921875 7.070312s1.0625 5.210938 2.921875 7.070312c1.859375 1.859376 4.4375 2.929688 7.078125 2.929688 2.632813 0 5.199219-1.070312 7.0625-2.929688 1.867187-1.859374 2.929687-4.441406 2.929687-7.070312s-1.0625-5.210938-2.929687-7.070312c-1.863281-1.859376-4.441406-2.929688-7.0625-2.929688zm0 0"/><path d="m348.125 432h8c5.523438 0 10-4.476562 10-10s-4.476562-10-10-10h-8c-5.519531 0-10 4.476562-10 10s4.480469 10 10 10zm0 0"/><path d="m152.125 432h8c5.523438 0 10-4.476562 10-10s-4.476562-10-10-10h-8c-5.519531 0-10 4.476562-10 10s4.480469 10 10 10zm0 0"/><path d="m201.125 412c-5.519531 0-10 4.476562-10 10s4.480469 10 10 10h8c5.523438 0 10-4.476562 10-10s-4.476562-10-10-10zm0 0"/><path d="m299.125 432h8c5.523438 0 10-4.476562 10-10s-4.476562-10-10-10h-8c-5.519531 0-10 4.476562-10 10s4.480469 10 10 10zm0 0"/><path d="m250.125 432h8c5.523438 0 10-4.476562 10-10s-4.476562-10-10-10h-8c-5.519531 0-10 4.476562-10 10s4.480469 10 10 10zm0 0"/></svg>